<?xml version="1.0" standalone="no"?>
<!DOCTYPE svg PUBLIC "-//W3C//DTD SVG 20010904//EN"
 "http://www.w3.org/TR/2001/REC-SVG-20010904/DTD/svg10.dtd">
<svg version="1.0" xmlns="http://www.w3.org/2000/svg"
 width="120.000000pt" height="120.000000pt" viewBox="0 0 120.000000 120.000000"
 preserveAspectRatio="xMidYMid meet">
<metadata>
Created by potrace 1.14, written by Peter Selinger 2001-2017
</metadata>
<g transform="translate(0.000000,120.000000) scale(0.100000,-0.100000)"
fill="#000000" stroke="none">
<path d="M250 1078 c11 -18 20 -46 20 -61 0 -41 -27 -87 -51 -87 -26 0 -77
-29 -84 -49 -3 -8 1 -19 10 -23 23 -14 19 -72 -9 -105 -13 -15 -27 -39 -31
-51 -6 -21 -5 -22 12 -14 55 30 97 109 81 154 -6 15 -15 28 -20 28 -22 0 15
29 45 36 32 7 76 45 78 67 0 7 2 21 5 32 9 43 -26 105 -60 105 -14 0 -13 -4 4
-32z"/>
<path d="M554 988 c-3 -4 -13 -8 -22 -8 -16 0 -69 -48 -86 -78 -12 -20 25
-112 45 -112 10 0 19 5 21 11 3 9 9 9 24 1 12 -6 26 -7 34 -2 9 5 19 5 27 -1
7 -7 19 -7 30 -1 33 16 77 9 81 -13 2 -11 6 -27 9 -35 3 -8 6 -22 7 -30 2 -26
45 -99 65 -109 14 -8 17 -18 14 -43 -3 -18 -5 -41 -5 -50 1 -10 -3 -18 -9 -18
-5 0 -8 -5 -7 -11 2 -6 -8 -13 -21 -14 -14 -1 -27 -7 -29 -13 -2 -7 -12 -12
-23 -12 -10 0 -19 -6 -19 -14 0 -23 -41 -27 -69 -7 -14 10 -36 22 -48 25 -13
4 -23 15 -23 24 1 16 2 15 11 0 10 -18 39 -25 39 -10 0 4 -8 15 -19 24 -10 8
-20 21 -22 27 -3 8 -14 8 -35 2 -52 -15 -62 0 -36 54 21 44 21 46 3 64 -13 13
-16 23 -9 36 6 9 11 26 12 38 2 12 6 32 10 45 5 15 3 22 -6 22 -11 0 -37 -60
-52 -121 -2 -9 3 -30 12 -48 11 -23 12 -35 4 -39 -20 -13 -25 -58 -8 -75 18
-18 21 -34 6 -39 -6 -2 -13 -39 -16 -83 -4 -44 -7 -93 -9 -110 -1 -16 -5 -38
-9 -47 -4 -9 -2 -29 6 -45 11 -23 21 -29 63 -34 56 -8 125 6 125 23 0 9 3 9
11 1 15 -15 66 3 79 28 6 10 16 16 24 13 7 -3 20 1 28 8 7 7 23 18 33 25 11 6
19 17 17 24 -2 10 0 10 12 0 16 -13 12 -36 -4 -26 -4 3 -13 -1 -19 -9 -9 -11
-9 -15 1 -18 14 -5 70 11 78 22 3 4 15 12 28 19 13 7 32 27 42 44 11 18 20 26
20 19 0 -16 39 -51 58 -52 18 0 15 13 -12 46 -14 16 -25 34 -26 39 -1 6 -9 19
-18 29 -13 14 -14 20 -4 23 6 3 12 9 12 15 0 5 7 16 15 24 8 9 15 24 15 35 0
11 5 17 10 14 6 -3 10 3 10 15 0 26 18 62 36 73 8 4 14 15 14 22 0 8 6 15 14
15 18 0 12 97 -8 119 -7 9 -25 39 -40 66 -24 45 -71 88 -119 107 -10 4 -16 12
-13 16 5 9 -7 12 -65 15 -20 2 -44 9 -53 16 -19 16 -96 24 -96 10 0 -4 -17 2
-37 14 -38 22 -100 31 -109 15z m216 -198 c0 -5 -7 -7 -15 -4 -8 4 -15 8 -15
10 0 2 7 4 15 4 8 0 15 -4 15 -10z m126 -229 c-16 -54 -17 -69 -3 -74 8 -3 24
3 36 14 16 15 21 16 21 6 0 -26 -28 -41 -54 -29 -20 9 -24 18 -24 61 0 38 3
48 14 44 8 -3 12 -13 10 -22z m44 -15 c0 -3 -4 -8 -10 -11 -5 -3 -10 -1 -10 4
0 6 5 11 10 11 6 0 10 -2 10 -4z m-26 -153 c11 -76 8 -94 -21 -119 -33 -28
-42 -15 -18 22 10 15 15 38 13 55 -3 16 -1 29 3 29 4 0 6 16 5 35 -4 51 10 33
18 -22z m-336 -2 c6 -1 12 -6 12 -11 0 -7 -6 -8 -16 -2 -9 5 -25 7 -35 5 -9
-3 -25 0 -35 5 -14 8 -9 9 21 7 22 -2 46 -4 53 -4z"/>
<path d="M516 714 c-11 -27 -7 -37 9 -24 16 14 20 40 6 40 -5 0 -12 -7 -15
-16z"/>
<path d="M120 672 c0 -4 5 -13 10 -18 6 -6 12 -27 13 -47 2 -20 6 -39 9 -43
12 -11 28 7 28 32 0 33 19 30 31 -6 9 -25 14 -28 29 -20 21 11 70 -3 70 -20 0
-5 8 -18 18 -28 9 -10 27 -32 39 -49 l22 -31 -24 -6 c-13 -3 -31 -3 -39 0 -9
3 -16 1 -16 -4 0 -15 29 -22 68 -17 55 7 86 45 37 45 -15 0 -25 6 -25 15 0 8
-13 28 -30 45 -16 17 -30 35 -30 40 0 14 -60 49 -74 44 -7 -3 -21 4 -31 16
-10 11 -25 20 -34 20 -9 0 -22 9 -29 20 -12 19 -42 28 -42 12z"/>
<path d="M522 661 c-11 -6 -7 -13 14 -30 21 -17 28 -30 26 -52 -2 -20 2 -29
12 -29 10 0 13 8 11 23 -4 19 0 22 26 23 17 1 34 6 38 12 3 6 20 12 36 15 36
5 43 22 14 37 -19 11 -21 10 -16 -4 8 -20 -4 -20 -50 -1 -39 17 -91 19 -111 6z"/>
<path d="M755 560 c-4 -11 -18 -34 -32 -50 -19 -23 -21 -30 -9 -30 16 0 66 66
66 87 0 20 -18 15 -25 -7z"/>
<path d="M86 465 c-3 -13 -16 -30 -27 -36 -17 -9 -19 -13 -8 -20 7 -4 19 -3
26 2 8 7 19 6 35 -2 41 -23 89 -22 110 1 24 26 16 37 -15 22 -12 -6 -33 -9
-47 -7 -14 2 -28 4 -33 4 -4 1 -5 12 -1 26 5 21 3 24 -12 18 -12 -4 -15 -3
-10 5 4 7 3 12 -2 12 -6 0 -13 -11 -16 -25z"/>
<path d="M309 353 c-8 -10 -25 -26 -39 -35 -24 -15 -57 -43 -152 -129 -29 -26
-43 -49 -53 -90 -22 -83 -20 -99 13 -99 26 0 27 2 24 39 -3 28 1 42 14 52 9 8
69 65 132 127 l116 112 -21 21 c-20 20 -21 20 -34 2z"/>
</g>
</svg>
